<svg data-v-f6aa3cb8="" data-v-7ebe371c="" width="68" height="44" viewBox="0 0 68 44" fill="none" xmlns="http://www.w3.org/2000/svg" class="icon chart-item__icon chart-item__icon--rank"><g filter="url(#filter0_d_13117_246937)"><path d="M3.1875 9.34496L3.8765 15.864L11.1905 13.903L6.1025 43H13.4165L19.9355 5.89996H13.5755L3.1875 9.34496Z" fill="white"></path><path d="M33.0259 43.742C37.6369 43.742 41.5059 42.046 44.5799 38.707C47.7069 35.368 49.7739 30.757 50.7809 24.927C51.7879 19.097 51.2579 14.327 49.1379 10.67C47.0709 7.01296 43.6789 5.15796 39.0149 5.15796C34.3509 5.15796 30.4819 6.85396 27.3549 10.193C24.2809 13.532 22.2139 18.09 21.2069 23.92C20.1999 29.75 20.7299 34.52 22.7969 38.23C24.9169 41.887 28.3089 43.742 33.0259 43.742ZM33.8739 36.587C28.9449 36.587 27.0899 32.347 28.5209 24.45C29.9519 16.553 33.2379 12.26 38.1139 12.26C43.0429 12.26 44.8979 16.553 43.4669 24.45C42.0359 32.347 38.7499 36.587 33.8739 36.587Z" fill="white"></path></g><g filter="url(#filter1_d_13117_246937)"><path fill-rule="evenodd" clip-rule="evenodd" d="M6.1025 43H13.4165L19.9355 5.89996H13.5755L3.1875 9.34496L3.8765 15.864L11.1905 13.903L6.1025 43ZM4.13794 15.4833L11.567 13.4914L6.45951 42.7H13.1646L19.5782 6.19996H13.6239L3.51123 9.55367L4.13794 15.4833ZM44.3592 38.5038L44.3609 38.5019C47.4374 35.2168 49.4853 30.6654 50.4853 24.8759C51.4853 19.0863 50.9507 14.3953 48.8783 10.8204L48.8767 10.8176C46.8694 7.26618 43.5845 5.45796 39.0149 5.45796C34.4343 5.45796 30.6448 7.1193 27.5747 10.3971C24.5497 13.6834 22.5022 18.1831 21.5025 23.971C20.5029 29.7585 21.0361 34.4517 23.0577 38.0818C25.1181 41.6342 28.4041 43.442 33.0259 43.442C37.5538 43.442 41.3425 41.7805 44.3592 38.5038ZM22.7969 38.23C20.7299 34.52 20.1999 29.75 21.2069 23.92C22.2139 18.09 24.2809 13.532 27.3549 10.193C30.4819 6.85396 34.3509 5.15796 39.0149 5.15796C43.6789 5.15796 47.0709 7.01296 49.1379 10.67C51.2579 14.327 51.7879 19.097 50.7809 24.927C49.7739 30.757 47.7069 35.368 44.5799 38.707C41.5059 42.046 37.6369 43.742 33.0259 43.742C28.3089 43.742 24.9169 41.887 22.7969 38.23ZM28.5378 33.6007C27.6004 31.4709 27.5067 28.3642 28.2257 24.3965C28.9456 20.4234 30.1375 17.3227 31.7891 15.2089C33.4492 13.0843 35.5732 11.96 38.1139 11.96C39.3899 11.96 40.4878 12.2381 41.3895 12.7995C42.2925 13.3616 42.9789 14.1956 43.4503 15.2734C44.3872 17.416 44.4811 20.5354 43.7621 24.5035C43.0421 28.4766 41.8502 31.5645 40.1981 33.6653C38.5374 35.7771 36.4132 36.887 33.8739 36.887C32.5986 36.887 31.501 36.6124 30.5994 36.0564C29.6962 35.4995 29.0094 34.6723 28.5378 33.6007ZM28.5209 24.45C27.0899 32.347 28.9449 36.587 33.8739 36.587C38.7499 36.587 42.0359 32.347 43.4669 24.45C44.8979 16.553 43.0429 12.26 38.1139 12.26C33.2379 12.26 29.9519 16.553 28.5209 24.45Z" fill="black" fill-opacity="0.1" shape-rendering="crispEdges"></path></g><defs><filter id="filter0_d_13117_246937" x="1.1875" y="3.15796" width="52.0859" height="42.584" filterUnits="userSpaceOnUse" color-interpolation-filters="sRGB"><feFlood flood-opacity="0" result="BackgroundImageFix"></feFlood><feColorMatrix in="SourceAlpha" type="matrix" values="0 0 0 0 0 0 0 0 0 0 0 0 0 0 0 0 0 0 127 0" result="hardAlpha"></feColorMatrix><feOffset></feOffset><feGaussianBlur stdDeviation="1"></feGaussianBlur><feComposite in2="hardAlpha" operator="out"></feComposite><feColorMatrix type="matrix" values="0 0 0 0 0 0 0 0 0 0 0 0 0 0 0 0 0 0 0.14 0"></feColorMatrix><feBlend mode="normal" in2="BackgroundImageFix" result="effect1_dropShadow_13117_246937"></feBlend><feBlend mode="normal" in="SourceGraphic" in2="effect1_dropShadow_13117_246937" result="shape"></feBlend></filter><filter id="filter1_d_13117_246937" x="1.1875" y="3.15796" width="52.0859" height="42.584" filterUnits="userSpaceOnUse" color-interpolation-filters="sRGB"><feFlood flood-opacity="0" result="BackgroundImageFix"></feFlood><feColorMatrix in="SourceAlpha" type="matrix" values="0 0 0 0 0 0 0 0 0 0 0 0 0 0 0 0 0 0 127 0" result="hardAlpha"></feColorMatrix><feOffset></feOffset><feGaussianBlur stdDeviation="1"></feGaussianBlur><feComposite in2="hardAlpha" operator="out"></feComposite><feColorMatrix type="matrix" values="0 0 0 0 0 0 0 0 0 0 0 0 0 0 0 0 0 0 0.14 0"></feColorMatrix><feBlend mode="normal" in2="BackgroundImageFix" result="effect1_dropShadow_13117_246937"></feBlend><feBlend mode="normal" in="SourceGraphic" in2="effect1_dropShadow_13117_246937" result="shape"></feBlend></filter></defs></svg>