<svg data-v-f6aa3cb8="" data-v-7ebe371c="" width="68" height="44" viewBox="0 0 68 44" fill="none" xmlns="http://www.w3.org/2000/svg" class="icon chart-item__icon chart-item__icon--rank"><g filter="url(#filter0_d_13117_246931)"><path d="M28.9566 44L30.1756 36.951H16.7136L25.2466 29.69C29.7516 25.821 32.1366 22.588 32.9316 18.348C33.5676 14.797 32.8256 11.882 30.7056 9.60296C28.6386 7.32396 25.9356 6.15796 22.7026 6.15796C17.2436 6.15796 12.3676 8.86096 9.13461 14.002L14.9646 17.765C16.8726 14.744 19.1516 13.26 21.7486 13.26C24.4516 13.26 26.0946 15.168 25.6176 18.083C25.2466 20.15 23.3916 22.588 20.0526 25.503L5.05361 38.541L4.09961 44H28.9566Z" fill="white"></path></g><g filter="url(#filter1_d_13117_246931)"><path fill-rule="evenodd" clip-rule="evenodd" d="M20.0526 25.503L5.05361 38.541L4.09961 44H28.9566L30.1756 36.951H16.7136L25.2466 29.69C29.7516 25.821 32.1366 22.588 32.9316 18.348C33.5676 14.797 32.8256 11.882 30.7056 9.60296C28.6386 7.32396 25.9356 6.15796 22.7026 6.15796C17.2436 6.15796 12.3676 8.86096 9.13461 14.002L14.9646 17.7649C15.0184 17.6797 15.0726 17.5956 15.1271 17.5128C17.0015 14.6614 19.2249 13.26 21.7486 13.26C24.4516 13.26 26.0946 15.168 25.6176 18.083C25.2466 20.15 23.3916 22.588 20.0526 25.503ZM14.875 17.3501C16.7855 14.4433 19.0913 12.96 21.7486 12.96C23.1718 12.96 24.3511 13.4643 25.1077 14.3883C25.8634 15.3111 26.1627 16.6098 25.9137 18.1314L25.9129 18.136C25.7161 19.2326 25.131 20.4023 24.1878 21.6554C23.2434 22.91 21.9285 24.2635 20.2499 25.729L5.3308 38.6975L4.45658 43.7H28.704L29.8193 37.251H15.8981L25.0512 29.4624C25.0513 29.4623 25.051 29.4625 25.0512 29.4624C29.5329 25.6133 31.8595 22.4361 32.6365 18.2938C33.2585 14.8195 32.5307 12.0054 30.486 9.80729L30.4834 9.80452C28.4763 7.59154 25.8556 6.45796 22.7026 6.45796C17.4421 6.45796 12.7291 9.01519 9.54823 13.9119L14.875 17.3501Z" fill="black" fill-opacity="0.1" shape-rendering="crispEdges"></path></g><defs><filter id="filter0_d_13117_246931" x="2.09961" y="4.15796" width="33.0527" height="41.842" filterUnits="userSpaceOnUse" color-interpolation-filters="sRGB"><feFlood flood-opacity="0" result="BackgroundImageFix"></feFlood><feColorMatrix in="SourceAlpha" type="matrix" values="0 0 0 0 0 0 0 0 0 0 0 0 0 0 0 0 0 0 127 0" result="hardAlpha"></feColorMatrix><feOffset></feOffset><feGaussianBlur stdDeviation="1"></feGaussianBlur><feComposite in2="hardAlpha" operator="out"></feComposite><feColorMatrix type="matrix" values="0 0 0 0 0 0 0 0 0 0 0 0 0 0 0 0 0 0 0.14 0"></feColorMatrix><feBlend mode="normal" in2="BackgroundImageFix" result="effect1_dropShadow_13117_246931"></feBlend><feBlend mode="normal" in="SourceGraphic" in2="effect1_dropShadow_13117_246931" result="shape"></feBlend></filter><filter id="filter1_d_13117_246931" x="2.09961" y="4.15796" width="33.0527" height="41.842" filterUnits="userSpaceOnUse" color-interpolation-filters="sRGB"><feFlood flood-opacity="0" result="BackgroundImageFix"></feFlood><feColorMatrix in="SourceAlpha" type="matrix" values="0 0 0 0 0 0 0 0 0 0 0 0 0 0 0 0 0 0 127 0" result="hardAlpha"></feColorMatrix><feOffset></feOffset><feGaussianBlur stdDeviation="1"></feGaussianBlur><feComposite in2="hardAlpha" operator="out"></feComposite><feColorMatrix type="matrix" values="0 0 0 0 0 0 0 0 0 0 0 0 0 0 0 0 0 0 0.14 0"></feColorMatrix><feBlend mode="normal" in2="BackgroundImageFix" result="effect1_dropShadow_13117_246931"></feBlend><feBlend mode="normal" in="SourceGraphic" in2="effect1_dropShadow_13117_246931" result="shape"></feBlend></filter></defs></svg>