<svg data-v-f6aa3cb8="" data-v-7ebe371c="" width="68" height="44" viewBox="0 0 68 44" fill="none" xmlns="http://www.w3.org/2000/svg" class="icon chart-item__icon chart-item__icon--rank"><g filter="url(#filter0_d_13117_246940)"><path d="M10.5185 5.90002L9.35247 12.737H23.5565L14.8115 22.277L16.8785 26.517H18.5215C22.2845 26.517 23.9805 28.531 23.5035 31.552C22.9205 34.679 20.4825 36.587 16.7195 36.587C13.5395 36.587 11.5255 35.156 10.7305 32.347L4.10547 35.898C5.74847 41.039 10.2005 43.742 15.9245 43.742C19.6345 43.742 22.8675 42.735 25.6235 40.721C28.3795 38.707 30.0755 35.792 30.7645 32.029C31.6125 26.941 28.9625 22.86 24.3515 21.111L32.8315 11.942L33.8385 5.90002H10.5185Z" fill="white"></path></g><g filter="url(#filter1_d_13117_246940)"><path fill-rule="evenodd" clip-rule="evenodd" d="M32.8315 11.942L33.8385 5.90002H10.5185L9.35247 12.737H23.5565L14.8115 22.277L16.8785 26.517H18.5215C22.2845 26.517 23.9805 28.531 23.5035 31.552C22.9205 34.679 20.4825 36.587 16.7195 36.587C13.6519 36.587 11.6693 35.2554 10.8193 32.6398C10.7882 32.5439 10.7586 32.4463 10.7305 32.347L4.10547 35.898C5.74847 41.039 10.2005 43.742 15.9245 43.742C19.6345 43.742 22.8675 42.735 25.6235 40.721C28.3795 38.707 30.0755 35.792 30.7645 32.029C31.5939 27.0522 29.0766 23.0389 24.651 21.229C24.5521 21.1886 24.4522 21.1493 24.3515 21.111L32.8315 11.942ZM30.4689 31.9774C31.2904 27.0426 28.7324 23.0936 24.2451 21.3915L23.8293 21.2338L32.5503 11.8042L33.4843 6.20002H10.7716L9.70796 12.437H24.2384L15.1706 22.3292L17.066 26.217H18.5215C20.4512 26.217 21.909 26.7334 22.8203 27.6953C23.7363 28.6623 24.0484 30.0244 23.7998 31.5988L23.7985 31.607C23.4946 33.2371 22.7026 34.5646 21.4844 35.4818C20.2688 36.397 18.651 36.887 16.7195 36.887C15.0853 36.887 13.7211 36.5191 12.6571 35.7652C11.6791 35.0721 10.9785 34.0696 10.5509 32.7837L4.46948 36.0433C6.12418 40.8817 10.3919 43.442 15.9245 43.442C19.5767 43.442 22.7464 42.452 25.4465 40.4788C28.1305 38.5174 29.7912 35.676 30.4689 31.9774Z" fill="black" fill-opacity="0.1" shape-rendering="crispEdges"></path></g><defs><filter id="filter0_d_13117_246940" x="2.10547" y="3.90002" width="33.7324" height="41.842" filterUnits="userSpaceOnUse" color-interpolation-filters="sRGB"><feFlood flood-opacity="0" result="BackgroundImageFix"></feFlood><feColorMatrix in="SourceAlpha" type="matrix" values="0 0 0 0 0 0 0 0 0 0 0 0 0 0 0 0 0 0 127 0" result="hardAlpha"></feColorMatrix><feOffset></feOffset><feGaussianBlur stdDeviation="1"></feGaussianBlur><feComposite in2="hardAlpha" operator="out"></feComposite><feColorMatrix type="matrix" values="0 0 0 0 0 0 0 0 0 0 0 0 0 0 0 0 0 0 0.14 0"></feColorMatrix><feBlend mode="normal" in2="BackgroundImageFix" result="effect1_dropShadow_13117_246940"></feBlend><feBlend mode="normal" in="SourceGraphic" in2="effect1_dropShadow_13117_246940" result="shape"></feBlend></filter><filter id="filter1_d_13117_246940" x="2.10547" y="3.90002" width="33.7324" height="41.842" filterUnits="userSpaceOnUse" color-interpolation-filters="sRGB"><feFlood flood-opacity="0" result="BackgroundImageFix"></feFlood><feColorMatrix in="SourceAlpha" type="matrix" values="0 0 0 0 0 0 0 0 0 0 0 0 0 0 0 0 0 0 127 0" result="hardAlpha"></feColorMatrix><feOffset></feOffset><feGaussianBlur stdDeviation="1"></feGaussianBlur><feComposite in2="hardAlpha" operator="out"></feComposite><feColorMatrix type="matrix" values="0 0 0 0 0 0 0 0 0 0 0 0 0 0 0 0 0 0 0.14 0"></feColorMatrix><feBlend mode="normal" in2="BackgroundImageFix" result="effect1_dropShadow_13117_246940"></feBlend><feBlend mode="normal" in="SourceGraphic" in2="effect1_dropShadow_13117_246940" result="shape"></feBlend></filter></defs></svg>