<svg data-v-f6aa3cb8="" data-v-7ebe371c="" width="68" height="44" viewBox="0 0 68 44" fill="none" xmlns="http://www.w3.org/2000/svg" class="icon chart-item__icon chart-item__icon--rank"><g filter="url(#filter0_d_13117_246946)"><path d="M30.0235 30.909L31.5605 22.111H24.1935L22.6565 30.909H13.2755L29.5465 6.90002H21.3315L5.11353 30.909L3.89453 37.693H21.4375L20.3245 44H27.6915L28.8045 37.693H32.8325L33.9985 30.909H30.0235Z" fill="white"></path></g><g filter="url(#filter1_d_13117_246946)"><path fill-rule="evenodd" clip-rule="evenodd" d="M29.6666 31.209L31.2036 22.411H24.4457L22.9087 31.209H12.7098L28.9808 7.20002H21.4909L5.3976 31.0244L4.25324 37.393H21.7951L20.6821 43.7H27.4398L28.5528 37.393H32.5797L33.6426 31.209H29.6666ZM33.9985 30.909L32.8325 37.693H28.8045L27.6915 44H20.3245L21.4375 37.693H3.89453L5.11353 30.909L21.3315 6.90002H29.5465L13.2755 30.909H22.6565L24.1935 22.111H31.5605L30.0235 30.909H33.9985Z" fill="black" fill-opacity="0.1" shape-rendering="crispEdges"></path></g><defs><filter id="filter0_d_13117_246946" x="1.89453" y="4.90002" width="34.1035" height="41.1" filterUnits="userSpaceOnUse" color-interpolation-filters="sRGB"><feFlood flood-opacity="0" result="BackgroundImageFix"></feFlood><feColorMatrix in="SourceAlpha" type="matrix" values="0 0 0 0 0 0 0 0 0 0 0 0 0 0 0 0 0 0 127 0" result="hardAlpha"></feColorMatrix><feOffset></feOffset><feGaussianBlur stdDeviation="1"></feGaussianBlur><feComposite in2="hardAlpha" operator="out"></feComposite><feColorMatrix type="matrix" values="0 0 0 0 0 0 0 0 0 0 0 0 0 0 0 0 0 0 0.14 0"></feColorMatrix><feBlend mode="normal" in2="BackgroundImageFix" result="effect1_dropShadow_13117_246946"></feBlend><feBlend mode="normal" in="SourceGraphic" in2="effect1_dropShadow_13117_246946" result="shape"></feBlend></filter><filter id="filter1_d_13117_246946" x="1.89453" y="4.90002" width="34.1035" height="41.1" filterUnits="userSpaceOnUse" color-interpolation-filters="sRGB"><feFlood flood-opacity="0" result="BackgroundImageFix"></feFlood><feColorMatrix in="SourceAlpha" type="matrix" values="0 0 0 0 0 0 0 0 0 0 0 0 0 0 0 0 0 0 127 0" result="hardAlpha"></feColorMatrix><feOffset></feOffset><feGaussianBlur stdDeviation="1"></feGaussianBlur><feComposite in2="hardAlpha" operator="out"></feComposite><feColorMatrix type="matrix" values="0 0 0 0 0 0 0 0 0 0 0 0 0 0 0 0 0 0 0.14 0"></feColorMatrix><feBlend mode="normal" in2="BackgroundImageFix" result="effect1_dropShadow_13117_246946"></feBlend><feBlend mode="normal" in="SourceGraphic" in2="effect1_dropShadow_13117_246946" result="shape"></feBlend></filter></defs></svg>