<svg data-v-f6aa3cb8="" data-v-7ebe371c="" width="68" height="44" viewBox="0 0 68 44" fill="none" xmlns="http://www.w3.org/2000/svg" class="icon chart-item__icon chart-item__icon--rank"><g filter="url(#filter0_d_13117_246925)"><path d="M32.9986 5.90002H11.9046L6.81663 26.517H18.0526C21.6566 26.517 23.4056 28.531 22.8226 31.552C22.3456 34.573 19.8546 36.587 16.2506 36.587C12.8586 36.587 10.7916 35.156 9.99662 32.294L3.26562 35.792C5.12063 41.039 9.51963 43.742 15.4556 43.742C19.1126 43.742 22.2926 42.735 24.9956 40.774C27.7516 38.76 29.4476 35.845 30.1366 32.029C30.8256 28.266 30.0836 25.192 27.9106 22.913C25.7376 20.581 23.0346 19.415 19.6956 19.415H15.9856L17.6816 12.737H31.7796L32.9986 5.90002Z" fill="white"></path></g><g filter="url(#filter1_d_13117_246925)"><path fill-rule="evenodd" clip-rule="evenodd" d="M17.6816 12.737H31.7796L32.9986 5.90002H11.9046L6.81663 26.517H18.0526C21.6566 26.517 23.4056 28.531 22.8226 31.552C22.3456 34.573 19.8546 36.587 16.2506 36.587C12.9763 36.587 10.9366 35.2536 10.084 32.5867C10.0533 32.4909 10.0242 32.3933 9.99662 32.294L3.26562 35.792C5.12063 41.039 9.51962 43.742 15.4556 43.742C19.1126 43.742 22.2926 42.735 24.9956 40.774C27.7516 38.76 29.4476 35.845 30.1366 32.029C30.8256 28.266 30.0836 25.192 27.9106 22.913C25.7376 20.581 23.0346 19.415 19.6956 19.415H15.9856L17.6816 12.737ZM3.6376 35.9368C4.55366 38.3808 6.04351 40.2307 7.99236 41.4822C10.0081 42.7767 12.5327 43.442 15.4556 43.442C19.054 43.442 22.1713 42.4524 24.8194 40.5312C27.5031 38.5698 29.1639 35.7282 29.8414 31.9757C30.5175 28.2834 29.7851 25.3137 27.6935 23.12L27.6911 23.1176C25.5768 20.8486 22.9543 19.715 19.6956 19.715H15.5999L17.4483 12.437H31.5284L32.6404 6.20002H12.1396L7.19966 26.217H18.0526C19.9055 26.217 21.3374 26.7349 22.228 27.698C23.1229 28.6656 23.4211 30.0278 23.1182 31.6038C22.6125 34.7911 19.9754 36.887 16.2506 36.887C14.5142 36.887 13.0843 36.5208 11.9797 35.7609C10.9607 35.06 10.2438 34.0413 9.81404 32.727L3.6376 35.9368Z" fill="black" fill-opacity="0.1" shape-rendering="crispEdges"></path></g><defs><filter id="filter0_d_13117_246925" x="1.26562" y="3.90002" width="33.7324" height="41.842" filterUnits="userSpaceOnUse" color-interpolation-filters="sRGB"><feFlood flood-opacity="0" result="BackgroundImageFix"></feFlood><feColorMatrix in="SourceAlpha" type="matrix" values="0 0 0 0 0 0 0 0 0 0 0 0 0 0 0 0 0 0 127 0" result="hardAlpha"></feColorMatrix><feOffset></feOffset><feGaussianBlur stdDeviation="1"></feGaussianBlur><feComposite in2="hardAlpha" operator="out"></feComposite><feColorMatrix type="matrix" values="0 0 0 0 0 0 0 0 0 0 0 0 0 0 0 0 0 0 0.14 0"></feColorMatrix><feBlend mode="normal" in2="BackgroundImageFix" result="effect1_dropShadow_13117_246925"></feBlend><feBlend mode="normal" in="SourceGraphic" in2="effect1_dropShadow_13117_246925" result="shape"></feBlend></filter><filter id="filter1_d_13117_246925" x="1.26562" y="3.90002" width="33.7324" height="41.842" filterUnits="userSpaceOnUse" color-interpolation-filters="sRGB"><feFlood flood-opacity="0" result="BackgroundImageFix"></feFlood><feColorMatrix in="SourceAlpha" type="matrix" values="0 0 0 0 0 0 0 0 0 0 0 0 0 0 0 0 0 0 127 0" result="hardAlpha"></feColorMatrix><feOffset></feOffset><feGaussianBlur stdDeviation="1"></feGaussianBlur><feComposite in2="hardAlpha" operator="out"></feComposite><feColorMatrix type="matrix" values="0 0 0 0 0 0 0 0 0 0 0 0 0 0 0 0 0 0 0.14 0"></feColorMatrix><feBlend mode="normal" in2="BackgroundImageFix" result="effect1_dropShadow_13117_246925"></feBlend><feBlend mode="normal" in="SourceGraphic" in2="effect1_dropShadow_13117_246925" result="shape"></feBlend></filter></defs></svg>