<svg data-v-f6aa3cb8="" data-v-7ebe371c="" width="68" height="44" viewBox="0 0 68 44" fill="none" xmlns="http://www.w3.org/2000/svg" class="icon chart-item__icon chart-item__icon--rank"><g filter="url(#filter0_d_13117_246934)"><path d="M30.8244 5.90002H22.0794L8.24636 22.171C6.07336 24.291 4.69536 26.994 4.11236 30.333C3.42336 34.149 4.21836 37.329 6.39136 39.926C8.56436 42.47 11.6384 43.742 15.6134 43.742C19.5884 43.742 22.9804 42.629 25.6834 40.35C28.4394 38.071 30.1354 35.05 30.8244 31.287C31.4604 27.736 30.7714 24.662 28.7574 22.171C26.7434 19.68 23.9874 18.249 20.4894 17.984L30.8244 5.90002ZM23.5104 30.81C22.8744 34.467 19.9594 36.852 16.4084 36.852C12.8574 36.852 10.7374 34.467 11.3734 30.81C12.0624 27.153 14.9244 24.821 18.5284 24.821C22.0794 24.821 24.1994 27.206 23.5104 30.81Z" fill="white"></path></g><g filter="url(#filter1_d_13117_246934)"><path fill-rule="evenodd" clip-rule="evenodd" d="M30.8244 5.90002H22.0794L8.24636 22.171C6.07336 24.291 4.69536 26.994 4.11236 30.333C3.42336 34.149 4.21836 37.329 6.39136 39.926C8.56436 42.47 11.6384 43.742 15.6134 43.742C19.5884 43.742 22.9804 42.629 25.6834 40.35C28.4394 38.071 30.1354 35.05 30.8244 31.287C31.4604 27.736 30.7714 24.662 28.7574 22.171C26.8143 19.7678 24.1807 18.3512 20.8564 18.0164C20.735 18.0042 20.6126 17.9934 20.4894 17.984L30.8244 5.90002ZM30.5292 31.2333C31.1519 27.7554 30.4754 24.7732 28.5241 22.3596C26.5653 19.9369 23.8875 18.5423 20.4667 18.2832L19.877 18.2385L30.173 6.20002H22.2181L8.46586 22.376L8.45585 22.3858C6.33259 24.4572 4.98122 27.101 4.40789 30.3846L4.40759 30.3863C3.73265 34.1244 4.51163 37.2114 6.62055 39.7324C8.72565 42.1962 11.7086 43.442 15.6134 43.442C19.5296 43.442 22.8496 42.3468 25.49 40.1207L25.4922 40.1188C28.1887 37.889 29.8517 34.9334 30.5292 31.2333ZM11.0785 30.7545C11.7942 26.9562 14.7796 24.521 18.5284 24.521C20.3702 24.521 21.8807 25.141 22.8382 26.27C23.7965 27.4 24.1623 28.9944 23.8055 30.8639C23.1436 34.6631 20.1045 37.152 16.4084 37.152C14.5661 37.152 13.0559 36.5318 12.092 35.3966C11.1275 34.2606 10.7482 32.6538 11.0778 30.7586L11.0785 30.7545ZM23.5104 30.81C22.8744 34.467 19.9594 36.852 16.4084 36.852C12.8574 36.852 10.7374 34.467 11.3734 30.81C12.0624 27.153 14.9244 24.821 18.5284 24.821C22.0794 24.821 24.1994 27.206 23.5104 30.81Z" fill="black" fill-opacity="0.1" shape-rendering="crispEdges"></path></g><defs><filter id="filter0_d_13117_246934" x="1.87109" y="3.90002" width="31.1816" height="41.842" filterUnits="userSpaceOnUse" color-interpolation-filters="sRGB"><feFlood flood-opacity="0" result="BackgroundImageFix"></feFlood><feColorMatrix in="SourceAlpha" type="matrix" values="0 0 0 0 0 0 0 0 0 0 0 0 0 0 0 0 0 0 127 0" result="hardAlpha"></feColorMatrix><feOffset></feOffset><feGaussianBlur stdDeviation="1"></feGaussianBlur><feComposite in2="hardAlpha" operator="out"></feComposite><feColorMatrix type="matrix" values="0 0 0 0 0 0 0 0 0 0 0 0 0 0 0 0 0 0 0.14 0"></feColorMatrix><feBlend mode="normal" in2="BackgroundImageFix" result="effect1_dropShadow_13117_246934"></feBlend><feBlend mode="normal" in="SourceGraphic" in2="effect1_dropShadow_13117_246934" result="shape"></feBlend></filter><filter id="filter1_d_13117_246934" x="1.87109" y="3.90002" width="31.1816" height="41.842" filterUnits="userSpaceOnUse" color-interpolation-filters="sRGB"><feFlood flood-opacity="0" result="BackgroundImageFix"></feFlood><feColorMatrix in="SourceAlpha" type="matrix" values="0 0 0 0 0 0 0 0 0 0 0 0 0 0 0 0 0 0 127 0" result="hardAlpha"></feColorMatrix><feOffset></feOffset><feGaussianBlur stdDeviation="1"></feGaussianBlur><feComposite in2="hardAlpha" operator="out"></feComposite><feColorMatrix type="matrix" values="0 0 0 0 0 0 0 0 0 0 0 0 0 0 0 0 0 0 0.14 0"></feColorMatrix><feBlend mode="normal" in2="BackgroundImageFix" result="effect1_dropShadow_13117_246934"></feBlend><feBlend mode="normal" in="SourceGraphic" in2="effect1_dropShadow_13117_246934" result="shape"></feBlend></filter></defs></svg>