<svg data-v-f6aa3cb8="" data-v-7ebe371c="" width="68" height="44" viewBox="0 0 68 44" fill="none" xmlns="http://www.w3.org/2000/svg" class="icon chart-item__icon chart-item__icon--rank"><g filter="url(#filter0_d_13117_246949)"><path d="M32.5204 16.341C33.1034 12.896 32.3614 10.193 30.2944 8.17896C28.2274 6.16496 25.4714 5.15796 22.1324 5.15796C18.6874 5.15796 15.6664 6.05896 13.1224 7.86096C10.5784 9.66296 8.98835 12.26 8.40535 15.705C7.82235 18.938 8.72335 21.482 11.0024 23.443C7.23935 25.351 4.96035 28.266 4.27135 32.188C3.68835 35.58 4.43035 38.336 6.60335 40.509C8.77635 42.682 11.9034 43.742 15.9314 43.742C24.1464 43.742 29.5524 39.926 30.7714 33.142C31.4604 29.379 30.0824 26.04 27.1674 23.92C30.1354 22.224 31.9374 19.68 32.5204 16.341ZM15.6134 16.394C16.0904 13.691 18.3694 12.048 21.1784 12.048C23.9344 12.048 25.6304 13.691 25.1534 16.394C24.7294 19.097 22.3974 20.793 19.5884 20.793C16.8854 20.793 15.1894 19.097 15.6134 16.394ZM23.7224 31.711C23.0864 34.944 20.3834 36.852 16.7794 36.852C13.2284 36.852 11.0554 34.944 11.6914 31.711C12.1684 28.531 15.0304 26.623 18.6344 26.623C22.0794 26.623 24.1994 28.531 23.7224 31.711Z" fill="white"></path></g><g filter="url(#filter1_d_13117_246949)"><path fill-rule="evenodd" clip-rule="evenodd" d="M27.4486 23.7546C30.2494 22.0604 31.956 19.5731 32.5204 16.341C33.1034 12.896 32.3614 10.193 30.2944 8.17896C28.2274 6.16496 25.4714 5.15796 22.1324 5.15796C18.6874 5.15796 15.6664 6.05896 13.1224 7.86096C10.5784 9.66296 8.98835 12.26 8.40535 15.705C7.84333 18.8217 8.66045 21.298 10.7618 23.229C10.8402 23.3011 10.9204 23.3724 11.0024 23.443C10.906 23.4918 10.8106 23.5414 10.7161 23.5915C7.12366 25.5009 4.94271 28.3664 4.27135 32.188C3.68835 35.58 4.43035 38.336 6.60335 40.509C8.77635 42.682 11.9034 43.742 15.9314 43.742C24.1464 43.742 29.5524 39.926 30.7714 33.142C31.4395 29.4929 30.1639 26.2426 27.4279 24.1159C27.3425 24.0495 27.2556 23.9842 27.1674 23.92C27.2623 23.8657 27.3561 23.8106 27.4486 23.7546ZM32.2247 16.2901C31.6572 19.5394 29.9099 22.0073 27.0185 23.6595L26.6157 23.8897L26.9909 24.1626C29.8115 26.2139 31.1447 29.4371 30.4763 33.0879L30.4761 33.0889C29.8794 36.4096 28.263 38.9884 25.8008 40.7416C23.3338 42.4982 19.9944 43.442 15.9314 43.442C11.9547 43.442 8.915 42.3963 6.81549 40.2968C4.7228 38.2041 3.99768 35.552 4.56694 32.2393C5.23819 28.4193 7.45126 25.5799 11.138 23.7105L11.5377 23.5079L11.198 23.2156C9.00407 21.3277 8.13538 18.8926 8.70061 15.7582L8.70115 15.755C9.27215 12.3809 10.8229 9.85736 13.2958 8.10577C15.7834 6.34371 18.7421 5.45796 22.1324 5.45796C25.4079 5.45796 28.0837 6.44389 30.085 8.39383C32.0663 10.3243 32.7948 12.9199 32.2247 16.2901ZM15.3179 16.3418L15.3179 16.3418C15.8243 13.4725 18.2484 11.748 21.1784 11.748C22.6122 11.748 23.8146 12.1757 24.5961 13.0011C25.3828 13.8319 25.6998 15.0198 25.4493 16.4433C24.9972 19.3159 22.5169 21.093 19.5884 21.093C18.1763 21.093 16.9881 20.6492 16.2086 19.8114C15.4254 18.9697 15.0936 17.7716 15.317 16.3475L15.3179 16.3418ZM25.1534 16.394C25.6304 13.691 23.9344 12.048 21.1784 12.048C18.3694 12.048 16.0904 13.691 15.6134 16.394C15.1894 19.097 16.8854 20.793 19.5884 20.793C22.3974 20.793 24.7294 19.097 25.1534 16.394ZM24.017 31.7689L24.0167 31.7689C23.3475 35.1706 20.4961 37.152 16.7794 37.152C14.9565 37.152 13.4386 36.6627 12.4563 35.7091C11.4642 34.7459 11.0642 33.3538 11.3957 31.6597C11.9045 28.292 14.9349 26.323 18.6344 26.323C20.4075 26.323 21.8841 26.8139 22.858 27.7592C23.8402 28.7124 24.2693 30.0871 24.019 31.7555L24.017 31.7689ZM16.7794 36.852C20.3834 36.852 23.0864 34.944 23.7224 31.711C24.1994 28.531 22.0794 26.623 18.6344 26.623C15.0304 26.623 12.1684 28.531 11.6914 31.711C11.0554 34.944 13.2284 36.852 16.7794 36.852Z" fill="black" fill-opacity="0.1" shape-rendering="crispEdges"></path></g><defs><filter id="filter0_d_13117_246949" x="2.08008" y="3.15796" width="32.6328" height="42.584" filterUnits="userSpaceOnUse" color-interpolation-filters="sRGB"><feFlood flood-opacity="0" result="BackgroundImageFix"></feFlood><feColorMatrix in="SourceAlpha" type="matrix" values="0 0 0 0 0 0 0 0 0 0 0 0 0 0 0 0 0 0 127 0" result="hardAlpha"></feColorMatrix><feOffset></feOffset><feGaussianBlur stdDeviation="1"></feGaussianBlur><feComposite in2="hardAlpha" operator="out"></feComposite><feColorMatrix type="matrix" values="0 0 0 0 0 0 0 0 0 0 0 0 0 0 0 0 0 0 0.14 0"></feColorMatrix><feBlend mode="normal" in2="BackgroundImageFix" result="effect1_dropShadow_13117_246949"></feBlend><feBlend mode="normal" in="SourceGraphic" in2="effect1_dropShadow_13117_246949" result="shape"></feBlend></filter><filter id="filter1_d_13117_246949" x="2.08008" y="3.15796" width="32.6328" height="42.584" filterUnits="userSpaceOnUse" color-interpolation-filters="sRGB"><feFlood flood-opacity="0" result="BackgroundImageFix"></feFlood><feColorMatrix in="SourceAlpha" type="matrix" values="0 0 0 0 0 0 0 0 0 0 0 0 0 0 0 0 0 0 127 0" result="hardAlpha"></feColorMatrix><feOffset></feOffset><feGaussianBlur stdDeviation="1"></feGaussianBlur><feComposite in2="hardAlpha" operator="out"></feComposite><feColorMatrix type="matrix" values="0 0 0 0 0 0 0 0 0 0 0 0 0 0 0 0 0 0 0.14 0"></feColorMatrix><feBlend mode="normal" in2="BackgroundImageFix" result="effect1_dropShadow_13117_246949"></feBlend><feBlend mode="normal" in="SourceGraphic" in2="effect1_dropShadow_13117_246949" result="shape"></feBlend></filter></defs></svg>