<svg data-v-f6aa3cb8="" data-v-7ebe371c="" width="68" height="44" viewBox="0 0 68 44" fill="none" xmlns="http://www.w3.org/2000/svg" class="icon chart-item__icon chart-item__icon--rank"><g filter="url(#filter0_d_13117_246928)"><path d="M20.5493 6.15796C16.5743 6.15796 13.1823 7.27096 10.4263 9.54996C7.72333 11.776 6.02734 14.797 5.33833 18.56C4.70234 22.111 5.39134 25.185 7.40534 27.676C9.41933 30.167 12.1753 31.598 15.6733 31.863L5.33833 44H14.1363L28.2873 27.305C30.2483 25.238 31.5203 22.694 32.1033 19.567C32.7393 15.751 31.9443 12.571 29.7713 10.027C27.5983 7.42996 24.5243 6.15796 20.5493 6.15796ZM12.6523 19.037C13.2883 15.433 16.2033 13.048 19.7543 13.048C23.3583 13.048 25.4783 15.38 24.7893 19.037C24.1533 22.694 21.2383 25.079 17.6343 25.079C14.0833 25.079 11.9633 22.694 12.6523 19.037Z" fill="white"></path></g><g filter="url(#filter1_d_13117_246928)"><path fill-rule="evenodd" clip-rule="evenodd" d="M10.617 9.78154C7.97461 11.9577 6.31125 14.9126 5.63352 18.6135C5.01074 22.0915 5.68723 25.0738 7.63862 27.4873C9.59742 29.9101 12.2752 31.3047 15.696 31.5638L16.2842 31.6084L5.98782 43.7H13.9974L28.0639 27.1046L28.0697 27.0985C29.9869 25.0777 31.2343 22.5887 31.8079 19.5148C32.4307 15.7741 31.6499 12.6881 29.5432 10.2218L29.5412 10.2195C27.4363 7.70388 24.4544 6.45796 20.5493 6.45796C16.6337 6.45796 13.3118 7.55323 10.617 9.78154ZM32.1033 19.567C31.5203 22.694 30.2483 25.238 28.2873 27.305L14.1363 44H5.33833L15.6733 31.863C15.5502 31.8536 15.4281 31.8429 15.3068 31.8307C11.9823 31.4959 9.34846 30.0793 7.40534 27.676C5.39134 25.185 4.70234 22.111 5.33833 18.56C6.02734 14.797 7.72333 11.776 10.4263 9.54996C13.1823 7.27096 16.5743 6.15796 20.5493 6.15796C24.5243 6.15796 27.5983 7.42996 29.7713 10.027C31.9443 12.571 32.7393 15.751 32.1033 19.567ZM12.3572 18.9831C13.0193 15.2358 16.0592 12.748 19.7543 12.748C21.6193 12.748 23.1436 13.3526 24.1092 14.4755C25.0762 15.6001 25.441 17.1959 25.0845 19.0905C24.4226 22.8913 21.3822 25.379 17.6343 25.379C15.7924 25.379 14.2815 24.7589 13.3239 23.6227C12.3657 22.4856 12.0006 20.878 12.3572 18.9831ZM12.6523 19.037C11.9633 22.694 14.0833 25.079 17.6343 25.079C21.2383 25.079 24.1533 22.694 24.7893 19.037C25.4783 15.38 23.3583 13.048 19.7543 13.048C16.2033 13.048 13.2883 15.433 12.6523 19.037Z" fill="black" fill-opacity="0.1" shape-rendering="crispEdges"></path></g><defs><filter id="filter0_d_13117_246928" x="3.10938" y="4.15796" width="31.207" height="41.842" filterUnits="userSpaceOnUse" color-interpolation-filters="sRGB"><feFlood flood-opacity="0" result="BackgroundImageFix"></feFlood><feColorMatrix in="SourceAlpha" type="matrix" values="0 0 0 0 0 0 0 0 0 0 0 0 0 0 0 0 0 0 127 0" result="hardAlpha"></feColorMatrix><feOffset></feOffset><feGaussianBlur stdDeviation="1"></feGaussianBlur><feComposite in2="hardAlpha" operator="out"></feComposite><feColorMatrix type="matrix" values="0 0 0 0 0 0 0 0 0 0 0 0 0 0 0 0 0 0 0.14 0"></feColorMatrix><feBlend mode="normal" in2="BackgroundImageFix" result="effect1_dropShadow_13117_246928"></feBlend><feBlend mode="normal" in="SourceGraphic" in2="effect1_dropShadow_13117_246928" result="shape"></feBlend></filter><filter id="filter1_d_13117_246928" x="3.10938" y="4.15796" width="31.207" height="41.842" filterUnits="userSpaceOnUse" color-interpolation-filters="sRGB"><feFlood flood-opacity="0" result="BackgroundImageFix"></feFlood><feColorMatrix in="SourceAlpha" type="matrix" values="0 0 0 0 0 0 0 0 0 0 0 0 0 0 0 0 0 0 127 0" result="hardAlpha"></feColorMatrix><feOffset></feOffset><feGaussianBlur stdDeviation="1"></feGaussianBlur><feComposite in2="hardAlpha" operator="out"></feComposite><feColorMatrix type="matrix" values="0 0 0 0 0 0 0 0 0 0 0 0 0 0 0 0 0 0 0.14 0"></feColorMatrix><feBlend mode="normal" in2="BackgroundImageFix" result="effect1_dropShadow_13117_246928"></feBlend><feBlend mode="normal" in="SourceGraphic" in2="effect1_dropShadow_13117_246928" result="shape"></feBlend></filter></defs></svg>